<?xml version="1.0" encoding="UTF-8" standalone="no"?>
<svg
   xmlns:dc="http://purl.org/dc/elements/1.1/"
   xmlns:cc="http://creativecommons.org/ns#"
   xmlns:rdf="http://www.w3.org/1999/02/22-rdf-syntax-ns#"
   xmlns:svg="http://www.w3.org/2000/svg"
   xmlns="http://www.w3.org/2000/svg"
   xmlns:sodipodi="http://sodipodi.sourceforge.net/DTD/sodipodi-0.dtd"
   xmlns:inkscape="http://www.inkscape.org/namespaces/inkscape"
   sodipodi:docname="dibujo.svg"
   inkscape:version="1.0rc1 (09960d6f05, 2020-04-09)"
   inkscape:export-ydpi="300"
   inkscape:export-xdpi="300"
   inkscape:export-filename="/home/nico/bitmap.png"
   id="svg8"
   version="1.1"
   viewBox="0 0 210 297"
   height="297mm"
   width="210mm">
  <defs
     id="defs2" />
  <sodipodi:namedview
     inkscape:window-maximized="1"
     inkscape:window-y="0"
     inkscape:window-x="0"
     inkscape:window-height="1007"
     inkscape:window-width="1920"
     showguides="false"
     inkscape:snap-nodes="false"
     showgrid="false"
     inkscape:document-rotation="0"
     inkscape:current-layer="layer1"
     inkscape:document-units="mm"
     inkscape:cy="7.2e+02"
     inkscape:cx="-3.6e+02"
     inkscape:zoom="0.38"
     inkscape:pageshadow="2"
     inkscape:pageopacity="0.0"
     borderopacity="1.0"
     bordercolor="#666666"
     pagecolor="#ffffff"
     id="base" />
  <metadata
     id="metadata5">
    <rdf:RDF>
      <cc:Work
         rdf:about="">
        <dc:format>image/svg+xml</dc:format>
        <dc:type
           rdf:resource="http://purl.org/dc/dcmitype/StillImage" />
        <dc:title></dc:title>
      </cc:Work>
    </rdf:RDF>
  </metadata>
  <g
     id="layer1"
     inkscape:groupmode="layer"
     inkscape:label="Capa 1">
    <path
       inkscape:export-ydpi="300"
       inkscape:export-xdpi="300"
       inkscape:export-filename="/home/nico/ass.png"
       sodipodi:nodetypes="csc"
       inkscape:connector-curvature="0"
       id="path833"
       d="m 200,40 c 0,0 -40,-22 -70,-9 -39,21 -10,51 -10,51"
       style="fill:none;stroke:#000000;stroke-width:2;stroke-linecap:butt;stroke-linejoin:miter;stroke-opacity:1;stroke-miterlimit:4;stroke-dasharray:none" />
    <path
       inkscape:export-ydpi="300"
       inkscape:export-xdpi="300"
       inkscape:export-filename="/home/nico/ass.png"
       inkscape:connector-curvature="0"
       id="path835"
       d="m 170,82 c 0,0 -50,-15 -70,17 -13,31 40,51 40,51"
       style="fill:none;stroke:#000000;stroke-width:2;stroke-linecap:butt;stroke-linejoin:miter;stroke-opacity:1;stroke-miterlimit:4;stroke-dasharray:none" />
    <path
       inkscape:connector-curvature="0"
       id="path837"
       d="M 110,76 C 77,63 69,60 69,60"
       style="fill:none;stroke:#000000;stroke-width:0.3;stroke-linecap:butt;stroke-linejoin:miter;stroke-opacity:1;stroke-miterlimit:4;stroke-dasharray:none" />
    <path
       inkscape:transform-center-y="1.6"
       inkscape:transform-center-x="-0.86"
       inkscape:connector-curvature="0"
       id="path839"
       d="M 110,80 69,79"
       style="fill:none;stroke:#000000;stroke-width:0.3;stroke-linecap:butt;stroke-linejoin:miter;stroke-opacity:1;stroke-miterlimit:4;stroke-dasharray:none" />
    <path
       sodipodi:nodetypes="cc"
       inkscape:connector-curvature="0"
       id="path841"
       d="M 110,82 70,100"
       style="fill:none;stroke:#000000;stroke-width:0.3;stroke-linecap:butt;stroke-linejoin:miter;stroke-opacity:1;stroke-miterlimit:4;stroke-dasharray:none" />
    <path
       sodipodi:nodetypes="cssssscscssssssssssc"
       inkscape:connector-curvature="0"
       id="path867"
       d="m 96,56 c 0,-4 14,-12 0,-19 0,-3 -16,-13 -20,-6 -4,3 0,9 0,13 L 72,34 c -6,-3 -12,-6 -19,0 -4,3 0,12 0,12 0,-6 -22,-6 -26,0 -1,4 -1,10 0,10 0,0 10,3 6,3 -2,6 -10,0 -10,12 v 4 c 16,11 14,0 8,11 v 10 c 2,2 16,4 16,2 0,-2 -16,22 -8,22 h 17 c 4,0 -8,10 -7,10 3,10 11,10 23,0 10,0 8,0 10,-10"
       style="fill:none;stroke:#000000;stroke-width:0.317471px;stroke-linecap:butt;stroke-linejoin:miter;stroke-opacity:1" />
    <path
       inkscape:connector-curvature="0"
       id="path869"
       d="M 79,55 C 68,52 60,43 53,52 c -3,0 5,9 5,9 -3,0 -11,0 -13,4 -3,3 8,10 10,10 0,0 -13,9 -8,15 3,6 8,2 11,2 0,4 -3,8 -3,8 8,10 18,0 26,0"
       style="fill:none;stroke:#000000;stroke-width:0.283796px;stroke-linecap:butt;stroke-linejoin:miter;stroke-opacity:1" />
  </g>
</svg>
